# xmcd
#
# Track frame offsets:
#	150
#	14750
#	33534
#	51133
#	66690
#	88162
#	107724
#	149527
#
# Disc length: 2148 seconds
# Revision: 0
# Processed by: cddbd v1.5.2PL0 Copyright (c) Steve Scherf et al.
# Submitted via: dBpowerAMP V12.0
#
DISCID=7b086208
DTITLE=The Moonshine Run - Love and Madness
DYEAR=2014
DGENRE=Blues
TTITLE0=Cruel Blues
TTITLE1=Reckless Heart
TTITLE2=Love and Madness
TTITLE3=We Three Kings
TTITLE4=Silver City
TTITLE5=Skeleton Ghost Train
TTITLE6=Out of Time
TTITLE7=How Long
EXTD=
EXTT0=
EXTT1=
EXTT2=
EXTT3=
EXTT4=
EXTT5=
EXTT6=
EXTT7=
PLAYORDER=
